<svg width="25" height="25" viewBox="0 0 25 25" fill="none" xmlns="http://www.w3.org/2000/svg">
<g clip-path="url(#clip0_28798_411)">
<path d="M14.7095 11.0715C15.9299 12.2919 15.9299 14.2706 14.7095 15.4911C13.4891 16.7115 11.5104 16.7115 10.29 15.4911C9.06953 14.2706 9.06953 12.2919 10.29 11.0715C11.5104 9.85108 13.4891 9.85108 14.7095 11.0715" fill="white"/>
<path d="M21.8749 4.68727H19.7157L18.1524 1.56216H6.84608L5.28426 4.68881L3.12813 4.69265C1.40919 4.69572 0.00987809 6.09651 0.00839381 7.81622L0 20.312C0 22.0355 1.40156 23.4379 3.12511 23.4379H21.8749C23.5985 23.4379 25.0001 22.0363 25.0001 20.3128V7.81233C25 6.08884 23.5984 4.68727 21.8749 4.68727V4.68727ZM12.4996 19.5315C9.05329 19.5315 6.2494 16.7276 6.2494 13.2813C6.2494 9.83493 9.05329 7.03104 12.4996 7.03104C15.9459 7.03104 18.7498 9.83493 18.7498 13.2813C18.7498 16.7276 15.9459 19.5315 12.4996 19.5315V19.5315Z" fill="white"/>
</g>
<defs>
<clipPath id="clip0_28798_411">
<rect width="25" height="25" fill="white"/>
</clipPath>
</defs>
</svg>
